<?xml version="1.0" encoding="UTF-8"?>
<svg id="Layer_1" data-name="Layer 1" xmlns="http://www.w3.org/2000/svg" viewBox="0 0 170.92 180.46">
  <defs>
    <style>
      .cls-1 {
        opacity: .44;
      }

      .cls-1, .cls-2, .cls-3 {
        fill: #fff;
      }

      .cls-2 {
        opacity: .35;
      }

      .cls-3 {
        opacity: .15;
      }

      .cls-4 {
        fill: #014dfe;
        isolation: isolate;
      }
    </style>
  </defs>
  <path class="cls-4" d="m162.02,140.49l-71.32,37.68c-3.28,1.73-7.2,1.73-10.47,0L8.9,140.49c-3.67-1.94-5.97-5.76-5.97-9.91V49.88c0-4.16,2.3-7.97,5.97-9.91L80.22,2.29c3.28-1.73,7.2-1.73,10.47,0l71.32,37.68c3.67,1.94,5.97,5.76,5.97,9.91v80.69c0,4.16-2.3,7.97-5.97,9.91Z"/>
  <path class="cls-1" d="m24.05,125.37l57.16-30.2c2.66-1.41,5.85-1.41,8.51,0l57.16,30.2c2.16,1.14,2.16,4.24,0,5.39l-57.16,30.2c-2.66,1.41-5.85,1.41-8.51,0l-57.16-30.2c-2.16-1.14-2.16-4.24,0-5.39Z"/>
  <path class="cls-2" d="m85.46,144.43l62.83-33.19c2.27-1.2,3.68-3.55,3.68-6.11v-49.25c0-2.56-1.42-4.91-3.68-6.11l-62.83-33.19v127.86Z"/>
  <path class="cls-3" d="m85.46,16.57L22.63,49.76c-2.27,1.2-3.68,3.55-3.68,6.11v49.25c0,2.56,1.42,4.91,3.68,6.11l62.83,33.19V16.57Z"/>
</svg>